<?xml version="1.0" encoding="utf-8"?>
<!-- Generator: Adobe Illustrator 25.0.0, SVG Export Plug-In . SVG Version: 6.00 Build 0)  -->
<svg version="1.1" id="Layer_1" xmlns="http://www.w3.org/2000/svg" xmlns:xlink="http://www.w3.org/1999/xlink" x="0px" y="0px"
	 viewBox="0 0 730 210" style="enable-background:new 0 0 730 210;" xml:space="preserve">
<style type="text/css">
	.st0{fill:#631719;}
	.st1{fill:#2D1116;}
</style>
<g>
	<path class="st0" d="M74.8,153.3c-7.4-5.2-11.8-6.6-19.2-8.3c-7.5-1.7-7-1.7-12.6-2.1c-3.2-0.2-5.8-0.2-7.3-0.1
		c11.6,23.7,33.7,41.4,60.1,47c-0.1-2.2,0-6,0.6-12.2c0-0.1,0-0.3,0-0.4c-0.9-1.3-2.4-3.4-4.8-6.9C87,163.9,82.2,158.5,74.8,153.3z
		 M55.3,101.4c18.6,2.3,29.8,8.1,37,12.4c7.2,4.3,12.6,9.1,17.2,14.1c2.1,2.3,3.4,3.9,4.1,4.9c6.9-8.5,16-16.2,27.1-21.7
		c15.5-7.7,20.7-8.1,32.5-9.5c11.8-1.4,21.3-0.8,24.2-0.4c1.4,0.2,2.6,0.4,3.5,0.5C199.4,55,161,17.5,113.9,17.5
		c-46.7,0-84.9,36.9-87.1,83C31.5,100.2,41.8,99.7,55.3,101.4z M55.3,49.6c1.8-1.6,3.5-0.6,5.7,0.6c2.2,1.2,6.1,4.1,11.8,8.4
		c5.7,4.3,12,9,15.9,13.1c3.9,4.1,6.7,6.9,8.4,9.2c1.6,2.2,2.2,3.7,4.1,3.5c1.8-0.2,1.8-2,1.6-6.5c-0.2-4.5,0-8.2,0.4-14.1
		c0.4-5.9,1.5-10.3,2.9-16.3c1.6-6.9,2.7-10.2,3.5-12.7c0.8-2.4,1.8-3.5,3.9-3.7c3.7-0.4,3.9,1.8,4.9,5.7c1,3.9,3.5,11,5.3,19
		c1.8,8,2.9,12,3.1,16.9c0.2,4.9,0,9.6,1.4,10.2c1.4,0.6,2.7-0.8,7.1-6.5c4.5-5.7,10.8-11.6,16.3-15.9c5.5-4.3,11-8.4,15.3-9.6
		c4.3-1.2,5.1-0.4,6.1,0.6c1,1,1,2.9-2,9.6c-3.1,6.7-5.3,11.6-11.2,21.2c-5.9,9.6-10.4,14.9-12.9,18c-2.4,3.1-5.1,3.9-6.3,2.7
		c-1.2-1.2-0.2-2.9,1.2-5.1c1.4-2.2,3.3-5.5,6.1-10.4c2.9-4.9,6.2-6.8,5.8-11.3c-0.4-4.5-3.8-4.8-7-2.3c-3.3,2.5-8,6.3-11.8,10.2
		c-3.9,3.9-5.3,4.5-7.1,6.1c-1.8,1.6-4.3,2-5.5-2c-1.2-4.1-2.2-9.4-3.1-13.5c-0.8-4.1-1.2-5.6-1.8-9.2c-0.8-4.7-2.2-4.9-3.9-4.9
		c-1.6,0-3.1,0.8-3.3,3.7c-0.2,2.9-0.8,6.1-1,10.8c-0.2,4.7-0.8,11.8-1.8,14.1c-1,2.2-2,4.1-5.5,2c-3.5-2-5.5-4.7-10.2-7.8
		c-4.7-3.1-6.9-5.3-10-7.1c-3.1-1.8-4.7-3-6.3-1.4c-1.4,1.4-0.6,2.5,0.8,4.9c1.2,2.1,1.8,3.7,4.1,7.4c2.2,3.7,4.7,7.1,6.3,10.2
		c1.6,3.1,2.2,4.3,1.2,5.7c-1,1.4-2,0.8-4.1-1c-2-1.8-7.1-7.5-11.6-14.1c-4.5-6.5-9-13.5-12-20.2c-3.1-6.7-4.5-10.4-5.3-12.8
		C53.9,52.3,53.5,51.2,55.3,49.6z M52.6,117.9c14.9,1.7,23.4,6,35,13c9.3,5.6,15.2,12.7,17.2,15.3c0.6-1.1,1.2-2.2,1.8-3.3
		c0.6-1.1,1.3-2.2,2.1-3.3c-1.3-1.7-4.2-5.2-8.1-8.9c-5.4-5.2-15.7-12.4-23.6-15.1c-7.9-2.7-17.6-5.8-29.2-6.6
		c-11.4-0.8-12.8-0.4-18.6,0c-0.9,0.1-1.7,0.1-2.4,0.2c0.1,2.8,0.4,5.5,0.8,8.1c0.2,0,0.3,0,0.5,0C31.7,117.1,37.7,116.3,52.6,117.9
		z M92.1,145.1c-5.4-4.6-9.3-8.9-22.8-14.3c-13.5-5.4-24.2-5.2-33.5-5.4c-3.3-0.1-5.3,0.1-6.6,0.3c0.8,3,1.7,6,2.7,8.9
		c1.6-0.1,4-0.1,6.9,0.1c5.6,0.4,18,0.4,29.4,5.2c11.4,4.8,17,9.5,20.9,13.7c3.3,3.4,6.4,7.6,9,11.4c0.7-3.2,1.6-6.4,2.8-9.7
		C99.5,153,96.1,148.4,92.1,145.1z M176.8,110.1c-11.6,1.4-25.9,3.8-39.3,12.6c-12.2,8.1-17.2,14.7-22.6,23.4
		c-5.4,8.7-9.9,23.6-10.6,33.1c-0.4,6-0.5,9.9-0.6,12c3,0.3,6,0.5,9.1,0.6c0-2.3,0.2-5.4,1-12.4c0.8-7.2,2.5-13.9,7.7-25.9
		c5.2-12,15.5-21.1,26.5-27.1c11-6,26.9-8.3,36.6-8.5c6.8-0.1,12.5,0,15.4,0.1c0.4-2.6,0.7-5.3,0.9-8.1
		C198,109.7,186.8,108.8,176.8,110.1z M153.8,134.1c-10.1,4.6-17.2,12.2-21.9,20.3c-4.8,8.1-6.6,14.9-8.9,24.6
		c-1.4,5.9-2.1,10.2-2.4,12.6c3.2-0.2,6.4-0.7,9.5-1.2c0-0.5,0.5-5.4,1.2-9.9c0.8-4.8,1.4-8.5,6-18.8c5.4-12.2,12.8-17.4,23.4-22.1
		c10.6-4.8,21.5-4.3,27.9-4.8c3-0.2,5.4,0,7.1,0.2c1-2.8,1.9-5.6,2.7-8.5c-2.5,0-10.4,0.2-17.2,0.8
		C173.9,127.9,163.9,129.5,153.8,134.1z M163.9,148c-10.3,3.7-14.9,9.3-18.8,17.6c-3.9,8.3-5.6,21.3-5.6,21.3l0.2,1.1
		c22.7-7.1,41.4-23.2,52-44.1c-0.1,0-0.2,0-0.3,0C188.4,143.6,174.3,144.2,163.9,148z"/>
	<g>
		<path class="st0" d="M232.6,77.8c3.3,1.5,6.5,2.6,9.8,3.4c3.3,0.8,6.5,1.1,9.8,1.1c3.4,0,6.1-0.6,8.1-1.7c2-1.1,3-2.7,3-4.5
			c0-1.9-0.9-3.5-2.8-4.5c-1.8-1.1-5.2-2-10-2.7c-5.7-0.9-10-2.3-12.8-4.3c-2.8-2-4.2-4.6-4.2-7.9c0-3.6,1.8-6.5,5.3-8.8
			c3.5-2.3,8.2-3.4,14.1-3.4c2.3,0,5.2,0.2,8.7,0.6c3.5,0.4,5.8,0.6,7,0.6c0.2,0,0.4,0,0.7-0.1c0.3-0.1,0.6-0.1,1-0.3l-2.3,8.9
			c-2.3-1.1-4.7-2-7.4-2.6c-2.6-0.6-5.5-0.9-8.5-0.9c-3,0-5.4,0.5-7.2,1.3c-1.7,0.9-2.6,2.1-2.6,3.7c0,1.3,0.7,2.4,2.2,3.4
			c1.5,1,3.5,1.7,6,2.1c0.7,0.1,1.8,0.3,3.2,0.5c5.4,0.8,9.2,1.7,11.4,2.8c2.4,1.1,4.1,2.6,5.3,4.3c1.2,1.8,1.8,3.8,1.8,6
			c0,4.2-1.8,7.5-5.5,10c-3.7,2.4-8.8,3.7-15.2,3.7c-2.4,0-5.1-0.2-8.4-0.6c-3.2-0.4-5.3-0.6-6.1-0.6c-0.3,0-0.6,0-1,0.1
			c-0.3,0.1-0.7,0.2-1.1,0.4L232.6,77.8z"/>
		<path class="st0" d="M286.5,61.3c1.8-1.8,3.7-3.1,6-4c2.2-0.9,4.6-1.3,7.2-1.3c5.3,0,9.5,1.4,12.6,4.3c3.1,2.9,4.6,6.7,4.6,11.6
			c0,5-1.6,9.1-4.8,12.1c-3.2,3-7.4,4.6-12.6,4.6c-2.5,0-4.8-0.4-7.1-1.1c-2.2-0.7-4-1.7-5.2-2.9v4.3c0,2.3,0.2,4,0.7,5.1
			c0.5,1.1,1.4,2.1,2.6,3.1h-13.8c1.2-1,2.1-2,2.5-3.1c0.5-1.1,0.7-2.8,0.7-5.1V65.2c0-2.2-0.2-3.8-0.7-4.9
			c-0.5-1.1-1.3-2.2-2.5-3.2h6.1c1.3,0,2.2,0.3,2.8,0.9c0.6,0.6,0.9,1.6,0.9,3V61.3z M298.1,83.2c3.5,0,6.2-1,8.2-2.9
			c2-2,2.9-4.7,2.9-8.2c0-3.3-0.9-6-2.8-7.8c-1.8-1.9-4.4-2.8-7.8-2.8c-3.4,0-6.2,1-8.1,3c-2,2-3,4.8-3,8.3c0,3.3,0.9,5.9,2.8,7.7
			C292.1,82.3,294.7,83.2,298.1,83.2z"/>
		<path class="st0" d="M351,84.9c-1.6,1.2-3.6,2.2-6,2.8c-2.4,0.6-5.2,0.9-8.3,0.9c-4.8,0-8.5-0.8-11.2-2.4c-2.7-1.6-4-3.8-4-6.6
			c0-4,2.1-6.8,6.2-8.5c4.1-1.7,11.4-2.6,21.9-2.7v-0.2c0-2.4-0.7-4.1-1.9-5.2c-1.3-1-3.5-1.5-6.5-1.5c-2.3,0-4.9,0.4-8,1.1
			c-3,0.7-6.1,1.8-9.2,3.1l2.8-8.6c0.2,0.1,0.4,0.2,0.7,0.2c0.3,0.1,0.6,0.1,0.9,0.1c0.8,0,2.8-0.2,6-0.7c3.1-0.4,5.8-0.7,8.1-0.7
			c5,0,8.7,1.1,11,3.2c2.3,2.1,3.4,5.5,3.4,10.3v9.6c0,2.1,0.3,3.8,0.9,5c0.6,1.2,1.7,2.4,3.1,3.6h-7.3c-0.6,0-1.2-0.3-1.6-0.8
			C351.4,86.5,351.1,85.8,351,84.9z M349.5,73.7c-8.1,0.1-13.5,0.5-16.3,1.3c-2.8,0.7-4.2,1.9-4.2,3.7c0,1.4,0.8,2.5,2.3,3.3
			c1.5,0.8,3.6,1.2,6.2,1.2c3.6,0,6.5-0.7,8.7-2.1c2.2-1.4,3.3-3.3,3.3-5.6V73.7z"/>
		<path class="st0" d="M385.7,45.5h23.9c7.1,0,12.2,0.8,15.3,2.5c3.1,1.6,4.6,4.3,4.6,8c0,2.2-0.7,4.2-2,5.8
			c-1.3,1.6-3.2,2.7-5.6,3.4c3.5,0.4,6.3,1.4,8.1,3.1c1.9,1.7,2.8,4,2.8,6.8c0,4.4-1.7,7.6-5.2,9.7c-3.5,2.1-8.9,3.1-16.3,3.1h-25.6
			c1.2-0.7,2-1.6,2.6-2.8c0.5-1.1,0.8-2.7,0.8-4.8V53c0-2-0.3-3.6-0.8-4.8C387.7,47.1,386.9,46.1,385.7,45.5z M397.4,51.3v11.9h12.7
			c3.5,0,6.2-0.5,7.9-1.5c1.7-1,2.5-2.5,2.5-4.5c0-2.1-0.7-3.6-2.2-4.6c-1.5-0.9-4-1.4-7.7-1.4H397.4z M397.4,69v12.9h14.9
			c3.9,0,6.7-0.5,8.7-1.6c1.9-1.1,2.9-2.7,2.9-4.9c0-2.2-0.8-3.8-2.5-4.8c-1.7-1-4.5-1.5-8.4-1.5H397.4z"/>
		<path class="st0" d="M472.2,87.8c-0.6-0.1-1.1-0.1-1.5-0.2c-0.4,0-0.8-0.1-1.2-0.1c-0.7,0-2.6,0.2-5.4,0.5
			c-2.9,0.4-5.4,0.5-7.5,0.5c-5.9,0-10.5-1.4-13.6-4.1c-3.2-2.8-4.8-6.7-4.8-11.8c0-5.1,1.7-9.1,5-12.1c3.3-3,7.8-4.5,13.4-4.5
			c5.8,0,10.2,1.4,13.2,4.2c3,2.8,4.5,6.9,4.5,12.4c0,0.4,0,0.7,0,1.1c0,0.4-0.1,1-0.1,1.8c-0.3-0.2-0.7-0.4-1.1-0.5
			c-0.4-0.1-0.9-0.2-1.5-0.2H471h-25v0.2c0,2.2,1.1,4.1,3.4,5.5c2.3,1.5,5.2,2.2,8.8,2.2c2.5,0,4.9-0.3,7.4-0.9
			c2.4-0.6,4.7-1.4,6.7-2.6L472.2,87.8z M445.9,69.6h20.5v-0.1c0-2.4-0.9-4.3-2.7-5.7c-1.8-1.4-4.2-2.1-7.2-2.1
			c-3.1,0-5.7,0.7-7.5,2.1C447.1,65.2,446.1,67.2,445.9,69.6z"/>
		<path class="st0" d="M489.1,79.6c0,2.4,0.2,4.1,0.7,5.2c0.5,1,1.3,2,2.5,3h-13.8c1.2-1,2-2,2.5-3.2c0.5-1.1,0.7-2.8,0.7-5V54.1
			c0-2.1-0.2-3.8-0.7-4.9c-0.5-1.2-1.3-2.3-2.5-3.4h11.5c-0.3,0.3-0.6,0.6-0.7,1.1c-0.1,0.4-0.2,1.2-0.2,2.2V79.6z"/>
		<path class="st0" d="M525.7,81.7c-1.3,1.2-3.1,2.2-5.3,2.9c-2.2,0.7-4.7,1-7.3,1c-4.9,0-8.9-1.3-12-3.8c-3.1-2.6-4.6-5.9-4.6-9.9
			c0-4.8,1.7-8.7,5-11.5c3.3-2.8,7.9-4.2,13.6-4.2c2.6,0,5,0.4,7.3,1.1c2.2,0.7,4,1.7,5.4,3c0.6-0.9,1.1-1.5,1.6-1.8
			c0.5-0.3,1.2-0.5,2.1-0.5h4.6c-1,1-1.7,2-2.1,3.3c-0.4,1.2-0.6,3-0.6,5.3v14.9c0,3.2-0.3,5.6-0.9,7.1c-0.6,1.5-1.6,2.9-3,4.2
			c-1.6,1.5-3.5,2.6-5.9,3.3c-2.4,0.7-5.3,1-8.9,1c-2.5,0-5-0.1-7.5-0.2c-2.5-0.1-3.8-0.2-3.8-0.2c-0.5,0-1,0-1.6,0.1
			c-0.6,0.1-1.2,0.2-1.9,0.4v-8.5c2.2,0.9,4.5,1.5,6.7,2c2.2,0.4,4.5,0.6,6.9,0.6c3.8,0,6.8-0.7,9.1-2.1c2.2-1.4,3.3-3.2,3.3-5.5
			c0-0.4,0-0.8,0-1.1C525.8,82.3,525.8,82,525.7,81.7z M515,79.9c3.3,0,5.9-0.8,7.8-2.4c1.9-1.6,2.8-3.8,2.8-6.6
			c0-2.9-0.9-5.2-2.7-6.7c-1.8-1.6-4.4-2.3-7.8-2.3c-3.4,0-6,0.8-7.8,2.4c-1.9,1.6-2.8,3.8-2.8,6.7c0,2.9,0.9,5.2,2.7,6.7
			C509,79.1,511.6,79.9,515,79.9z"/>
		<path class="st0" d="M550.4,79.5c0,2.3,0.2,4,0.7,5.1c0.5,1.1,1.4,2.1,2.6,3.1h-13.9c1.2-1,2-2,2.5-3c0.5-1,0.7-2.8,0.7-5.1V65.3
			c0-2.3-0.2-4-0.7-5.1c-0.5-1.1-1.3-2.1-2.4-3.1h7.2c0.6,0,1-0.1,1.4-0.2c0.4-0.1,0.7-0.3,1-0.6v4.9c1.4-1.7,3-2.9,4.8-3.7
			c1.8-0.8,4-1.2,6.4-1.2c1.3,0,2.8,0.1,4.3,0.3c1.5,0.2,2.4,0.3,2.5,0.3c0.2,0,0.6,0,1.2-0.1c0.1,0,0.2,0,0.2,0l-2,7.1
			c-1-0.6-2.1-1.1-3.3-1.3c-1.2-0.3-2.5-0.4-4-0.4c-2.9,0-5.2,0.8-6.9,2.5c-1.7,1.7-2.5,3.9-2.5,6.9V79.5z"/>
		<path class="st0" d="M599.7,84.9c-1.6,1.2-3.6,2.2-6,2.8c-2.4,0.6-5.2,0.9-8.3,0.9c-4.8,0-8.5-0.8-11.2-2.4c-2.7-1.6-4-3.8-4-6.6
			c0-4,2.1-6.8,6.2-8.5c4.1-1.7,11.4-2.6,21.8-2.7v-0.2c0-2.4-0.6-4.1-1.9-5.2c-1.3-1-3.5-1.5-6.5-1.5c-2.3,0-4.9,0.4-7.9,1.1
			c-3,0.7-6.1,1.8-9.2,3.1l2.8-8.6c0.2,0.1,0.4,0.2,0.7,0.2c0.3,0.1,0.5,0.1,0.8,0.1c0.8,0,2.8-0.2,6-0.7c3.1-0.4,5.8-0.7,8.1-0.7
			c5,0,8.7,1.1,11,3.2c2.3,2.1,3.5,5.5,3.5,10.3v9.6c0,2.1,0.3,3.8,0.9,5c0.6,1.2,1.7,2.4,3.1,3.6h-7.3c-0.6,0-1.2-0.3-1.6-0.8
			C600.1,86.5,599.8,85.8,599.7,84.9z M598.3,73.7c-8.1,0.1-13.5,0.5-16.3,1.3c-2.8,0.7-4.2,1.9-4.2,3.7c0,1.4,0.8,2.5,2.3,3.3
			c1.5,0.8,3.6,1.2,6.2,1.2c3.6,0,6.5-0.7,8.7-2.1c2.2-1.4,3.3-3.3,3.3-5.6V73.7z"/>
		<path class="st0" d="M622.4,79.5c0,2.4,0.2,4.1,0.7,5.1c0.5,1.1,1.4,2.1,2.6,3h-13.8c1.2-1,2.1-2,2.5-3.1c0.5-1.1,0.7-2.8,0.7-5.1
			V65.3c0-2.2-0.2-3.8-0.7-4.9c-0.5-1.1-1.3-2.2-2.5-3.2h7.2c0.6,0,1-0.1,1.4-0.2c0.4-0.1,0.7-0.4,1-0.7v4.9c1.8-1.7,3.9-3,6.2-3.8
			c2.3-0.8,5-1.2,7.9-1.2c4.7,0,8.2,1.1,10.5,3.3c2.3,2.2,3.4,5.5,3.4,9.8v10.4c0,2.5,0.2,4.2,0.7,5.2c0.5,1,1.3,2,2.5,3h-13.8
			c1.2-1,2-2,2.5-3c0.5-1.1,0.7-2.8,0.7-5.1v-8.1c0-3.7-0.7-6.3-2-7.8c-1.3-1.6-3.5-2.3-6.5-2.3c-3.6,0-6.4,0.9-8.4,2.7
			c-2,1.8-3,4.4-3,7.6V79.5z"/>
		<path class="st0" d="M656.6,72.8c0-5.2,1.8-9.3,5.3-12.3c3.6-3,8.4-4.5,14.6-4.5c5.9,0,10.4,1.4,13.6,4.2
			c3.2,2.8,4.8,6.8,4.8,12.1c0,4.9-1.8,8.9-5.4,11.9c-3.6,3-8.5,4.4-14.6,4.4c-5.8,0-10.3-1.4-13.5-4.2
			C658.3,81.7,656.6,77.8,656.6,72.8z M676.4,61.7c-3.6,0-6.5,1-8.6,3c-2.1,2-3.1,4.7-3.1,8.1c0,3.3,1,5.8,2.9,7.5
			c1.9,1.8,4.7,2.6,8.3,2.6c3.5,0,6.3-1,8.3-2.9c2.1-1.9,3.1-4.5,3.1-7.7c0-3.4-0.9-6-2.8-7.9C682.5,62.6,679.8,61.7,676.4,61.7z"/>
	</g>
	<g>
		<path class="st1" d="M246,120c-0.1,0.2-0.2,0.3-0.4,0.3c-0.1,0-0.3-0.1-0.5-0.3c-0.2-0.2-0.5-0.4-0.8-0.6
			c-0.4-0.2-0.8-0.4-1.3-0.6c-0.5-0.2-1.2-0.3-1.9-0.3c-0.8,0-1.5,0.1-2,0.3c-0.6,0.2-1.1,0.5-1.5,0.9c-0.4,0.4-0.7,0.8-0.9,1.3
			c-0.2,0.5-0.3,1-0.3,1.6c0,0.7,0.2,1.3,0.5,1.8c0.3,0.5,0.7,0.9,1.2,1.2c0.5,0.3,1.1,0.6,1.7,0.8c0.6,0.2,1.3,0.4,2,0.7
			c0.7,0.2,1.3,0.5,2,0.7c0.6,0.3,1.2,0.6,1.7,1c0.5,0.4,0.9,0.9,1.2,1.5c0.3,0.6,0.5,1.3,0.5,2.2c0,0.9-0.2,1.7-0.5,2.5
			c-0.3,0.8-0.7,1.5-1.3,2c-0.6,0.6-1.3,1-2.1,1.4c-0.8,0.3-1.8,0.5-2.9,0.5c-1.4,0-2.6-0.2-3.6-0.7c-1-0.5-1.9-1.2-2.7-2l0.4-0.7
			c0.1-0.2,0.3-0.2,0.4-0.2c0.1,0,0.2,0.1,0.3,0.2c0.1,0.1,0.3,0.3,0.5,0.4c0.2,0.2,0.4,0.4,0.7,0.6c0.3,0.2,0.6,0.4,1,0.6
			c0.4,0.2,0.8,0.3,1.3,0.4c0.5,0.1,1,0.2,1.6,0.2c0.8,0,1.6-0.1,2.3-0.4c0.7-0.3,1.2-0.6,1.7-1c0.5-0.4,0.8-1,1-1.6
			c0.2-0.6,0.4-1.3,0.4-1.9c0-0.7-0.2-1.4-0.5-1.9c-0.3-0.5-0.7-0.9-1.2-1.2c-0.5-0.3-1.1-0.6-1.7-0.8c-0.6-0.2-1.3-0.4-2-0.6
			c-0.7-0.2-1.3-0.4-2-0.7c-0.6-0.3-1.2-0.6-1.7-1c-0.5-0.4-0.9-0.9-1.2-1.5c-0.3-0.6-0.5-1.4-0.5-2.3c0-0.7,0.1-1.4,0.4-2.1
			c0.3-0.7,0.7-1.2,1.2-1.7c0.5-0.5,1.2-0.9,1.9-1.2c0.8-0.3,1.6-0.5,2.6-0.5c1.1,0,2.1,0.2,3,0.5c0.9,0.4,1.7,0.9,2.4,1.6L246,120z
			"/>
		<path class="st1" d="M259.2,137.5c1,0,1.9-0.2,2.7-0.5c0.8-0.4,1.5-0.8,2-1.5c0.6-0.6,1-1.4,1.3-2.2c0.3-0.9,0.4-1.8,0.4-2.8
			v-13.1h1.5v13.1c0,1.2-0.2,2.3-0.6,3.3c-0.4,1-0.9,1.9-1.6,2.7c-0.7,0.8-1.5,1.3-2.5,1.8c-1,0.4-2.1,0.6-3.4,0.6
			c-1.2,0-2.4-0.2-3.4-0.6c-1-0.4-1.8-1-2.5-1.8c-0.7-0.8-1.2-1.6-1.6-2.7c-0.4-1-0.6-2.1-0.6-3.3v-13.1h1.5v13.1
			c0,1,0.1,1.9,0.4,2.8c0.3,0.9,0.7,1.6,1.3,2.2c0.6,0.6,1.2,1.1,2,1.5C257.3,137.3,258.2,137.5,259.2,137.5z"/>
		<path class="st1" d="M283.7,120c-0.1,0.2-0.2,0.3-0.4,0.3c-0.1,0-0.3-0.1-0.5-0.3c-0.2-0.2-0.5-0.4-0.8-0.6
			c-0.4-0.2-0.8-0.4-1.3-0.6c-0.5-0.2-1.2-0.3-1.9-0.3s-1.5,0.1-2,0.3c-0.6,0.2-1.1,0.5-1.5,0.9c-0.4,0.4-0.7,0.8-0.9,1.3
			c-0.2,0.5-0.3,1-0.3,1.6c0,0.7,0.2,1.3,0.5,1.8c0.3,0.5,0.7,0.9,1.2,1.2c0.5,0.3,1.1,0.6,1.7,0.8c0.6,0.2,1.3,0.4,2,0.7
			c0.7,0.2,1.3,0.5,2,0.7c0.6,0.3,1.2,0.6,1.7,1s0.9,0.9,1.2,1.5c0.3,0.6,0.5,1.3,0.5,2.2c0,0.9-0.2,1.7-0.5,2.5
			c-0.3,0.8-0.7,1.5-1.3,2c-0.6,0.6-1.3,1-2.1,1.4c-0.8,0.3-1.8,0.5-2.9,0.5c-1.4,0-2.6-0.2-3.6-0.7c-1-0.5-1.9-1.2-2.7-2l0.4-0.7
			c0.1-0.2,0.3-0.2,0.4-0.2c0.1,0,0.2,0.1,0.3,0.2c0.1,0.1,0.3,0.3,0.5,0.4c0.2,0.2,0.4,0.4,0.7,0.6c0.3,0.2,0.6,0.4,1,0.6
			c0.4,0.2,0.8,0.3,1.3,0.4c0.5,0.1,1,0.2,1.6,0.2c0.8,0,1.6-0.1,2.3-0.4c0.7-0.3,1.2-0.6,1.7-1c0.5-0.4,0.8-1,1-1.6
			c0.2-0.6,0.4-1.3,0.4-1.9c0-0.7-0.2-1.4-0.5-1.9c-0.3-0.5-0.7-0.9-1.2-1.2c-0.5-0.3-1.1-0.6-1.7-0.8c-0.6-0.2-1.3-0.4-2-0.6
			c-0.7-0.2-1.3-0.4-2-0.7c-0.6-0.3-1.2-0.6-1.7-1c-0.5-0.4-0.9-0.9-1.2-1.5c-0.3-0.6-0.5-1.4-0.5-2.3c0-0.7,0.1-1.4,0.4-2.1
			c0.3-0.7,0.7-1.2,1.2-1.7c0.5-0.5,1.2-0.9,1.9-1.2c0.8-0.3,1.6-0.5,2.6-0.5c1.1,0,2.1,0.2,3,0.5c0.9,0.4,1.7,0.9,2.4,1.6
			L283.7,120z"/>
		<path class="st1" d="M305,138.6h-1.2c-0.1,0-0.3,0-0.3-0.1c-0.1-0.1-0.2-0.2-0.2-0.3l-2.5-6.2h-10.4l-2.5,6.2
			c0,0.1-0.1,0.2-0.2,0.3c-0.1,0.1-0.2,0.1-0.4,0.1h-1.2l8.7-21.2h1.5L305,138.6z M290.8,130.9h9.5l-4.3-10.7
			c-0.1-0.2-0.1-0.4-0.2-0.6c-0.1-0.2-0.1-0.4-0.2-0.7c-0.1,0.2-0.1,0.5-0.2,0.7c-0.1,0.2-0.1,0.4-0.2,0.6L290.8,130.9z"/>
		<path class="st1" d="M309.5,117.4c0.1,0,0.2,0.1,0.3,0.2l13.7,18.4c0-0.3,0-0.6,0-0.9v-17.8h1.4v21.2H324c-0.2,0-0.4-0.1-0.6-0.3
			l-13.8-18.4c0,0.3,0,0.6,0,0.9v17.9h-1.3v-21.2h0.7C309.3,117.4,309.4,117.4,309.5,117.4z"/>
		<path class="st1" d="M347,138.6h-1.2c-0.1,0-0.3,0-0.3-0.1c-0.1-0.1-0.2-0.2-0.2-0.3l-2.5-6.2h-10.4l-2.5,6.2
			c0,0.1-0.1,0.2-0.2,0.3c-0.1,0.1-0.2,0.1-0.4,0.1h-1.2l8.7-21.2h1.5L347,138.6z M332.8,130.9h9.5l-4.3-10.7
			c-0.1-0.2-0.1-0.4-0.2-0.6c-0.1-0.2-0.1-0.4-0.2-0.7c-0.1,0.2-0.1,0.5-0.2,0.7c-0.1,0.2-0.1,0.4-0.2,0.6L332.8,130.9z"/>
		<path class="st1" d="M357.2,117.4c0.1,0,0.2,0.1,0.3,0.2l13.7,18.4c0-0.3,0-0.6,0-0.9v-17.8h1.3v21.2h-0.7c-0.2,0-0.4-0.1-0.6-0.3
			l-13.8-18.4c0,0.3,0,0.6,0,0.9v17.9h-1.3v-21.2h0.7C357.1,117.4,357.2,117.4,357.2,117.4z"/>
		<path class="st1" d="M397.8,128c0,1.6-0.2,3.1-0.7,4.5c-0.5,1.3-1.2,2.5-2.1,3.4c-0.9,0.9-2,1.7-3.2,2.2c-1.2,0.5-2.6,0.8-4.1,0.8
			c-1.5,0-2.9-0.3-4.1-0.8c-1.2-0.5-2.3-1.2-3.2-2.2c-0.9-0.9-1.6-2.1-2.1-3.4c-0.5-1.3-0.7-2.8-0.7-4.5c0-1.6,0.2-3.1,0.7-4.4
			c0.5-1.3,1.2-2.5,2.1-3.4c0.9-0.9,2-1.7,3.2-2.2c1.2-0.5,2.6-0.8,4.1-0.8c1.5,0,2.9,0.3,4.1,0.8c1.2,0.5,2.3,1.2,3.2,2.2
			c0.9,1,1.6,2.1,2.1,3.4C397.5,124.9,397.8,126.3,397.8,128z M396.2,128c0-1.5-0.2-2.8-0.6-4c-0.4-1.2-1-2.2-1.7-3
			c-0.7-0.8-1.6-1.4-2.7-1.9c-1-0.4-2.2-0.7-3.5-0.7c-1.3,0-2.4,0.2-3.5,0.7c-1,0.4-1.9,1.1-2.7,1.9c-0.8,0.8-1.3,1.8-1.8,3
			c-0.4,1.2-0.6,2.5-0.6,4c0,1.5,0.2,2.8,0.6,4c0.4,1.2,1,2.2,1.8,3c0.8,0.8,1.7,1.4,2.7,1.9c1,0.4,2.2,0.6,3.5,0.6
			c1.3,0,2.4-0.2,3.5-0.6c1.1-0.4,1.9-1.1,2.7-1.9c0.7-0.8,1.3-1.8,1.7-3C396,130.8,396.2,129.5,396.2,128z"/>
		<path class="st1" d="M411.9,137.6c0.7,0,1.4,0,2-0.1c0.6-0.1,1.2-0.2,1.7-0.3c0.5-0.2,1-0.3,1.5-0.5c0.5-0.2,0.9-0.5,1.4-0.7v-5.7
			h-4.1c-0.1,0-0.2,0-0.3-0.1c-0.1-0.1-0.1-0.1-0.1-0.2V129h5.9v7.5c-0.5,0.4-1.1,0.7-1.7,1c-0.6,0.3-1.2,0.5-1.8,0.7
			c-0.6,0.2-1.3,0.3-2.1,0.4c-0.8,0.1-1.6,0.2-2.5,0.2c-1.5,0-2.9-0.3-4.2-0.8c-1.3-0.5-2.3-1.2-3.3-2.2c-0.9-0.9-1.6-2.1-2.1-3.4
			c-0.5-1.3-0.8-2.8-0.8-4.5c0-1.6,0.3-3.1,0.8-4.5c0.5-1.3,1.2-2.5,2.1-3.4c0.9-0.9,2-1.7,3.4-2.2c1.3-0.5,2.8-0.8,4.4-0.8
			c0.8,0,1.6,0.1,2.2,0.2c0.7,0.1,1.3,0.3,1.9,0.5c0.6,0.2,1.1,0.5,1.7,0.8c0.5,0.3,1,0.7,1.5,1.1l-0.4,0.7
			c-0.1,0.1-0.2,0.2-0.4,0.2c-0.1,0-0.2,0-0.3-0.1c-0.1-0.1-0.4-0.2-0.7-0.4c-0.3-0.2-0.7-0.4-1.2-0.7c-0.5-0.2-1.1-0.5-1.8-0.6
			c-0.7-0.2-1.6-0.3-2.7-0.3c-1.4,0-2.6,0.2-3.7,0.7c-1.1,0.4-2.1,1.1-2.8,1.9c-0.8,0.8-1.4,1.8-1.8,3c-0.4,1.2-0.6,2.5-0.6,4
			c0,1.5,0.2,2.8,0.6,4c0.4,1.2,1,2.2,1.8,3c0.8,0.8,1.7,1.5,2.8,1.9C409.4,137.4,410.6,137.6,411.9,137.6z"/>
		<path class="st1" d="M433,137.5c1,0,1.9-0.2,2.7-0.5c0.8-0.4,1.5-0.8,2-1.5c0.6-0.6,1-1.4,1.3-2.2c0.3-0.9,0.4-1.8,0.4-2.8v-13.1
			h1.5v13.1c0,1.2-0.2,2.3-0.6,3.3c-0.4,1-0.9,1.9-1.6,2.7c-0.7,0.8-1.5,1.3-2.5,1.8c-1,0.4-2.1,0.6-3.4,0.6c-1.2,0-2.4-0.2-3.4-0.6
			c-1-0.4-1.8-1-2.5-1.8c-0.7-0.8-1.2-1.6-1.6-2.7c-0.4-1-0.6-2.1-0.6-3.3v-13.1h1.5v13.1c0,1,0.1,1.9,0.4,2.8
			c0.3,0.9,0.7,1.6,1.3,2.2c0.6,0.6,1.2,1.1,2,1.5C431.1,137.3,432,137.5,433,137.5z"/>
		<path class="st1" d="M459.9,117.4v1.3h-11.2v8.6h9.3v1.2h-9.3v8.8h11.2v1.3h-12.7v-21.2H459.9z"/>
		<path class="st1" d="M466.9,129v9.6h-1.5v-21.2h5.4c2.4,0,4.3,0.5,5.5,1.4c1.2,0.9,1.8,2.3,1.8,4.2c0,0.8-0.1,1.5-0.4,2.2
			c-0.3,0.7-0.7,1.3-1.2,1.8c-0.5,0.5-1.2,0.9-1.9,1.2c-0.7,0.3-1.6,0.5-2.5,0.6c0.2,0.1,0.5,0.3,0.6,0.6l7.3,9.2h-1.3
			c-0.2,0-0.3,0-0.4-0.1c-0.1-0.1-0.2-0.2-0.3-0.3l-6.8-8.6c-0.2-0.2-0.4-0.4-0.5-0.5c-0.2-0.1-0.5-0.1-0.9-0.1H466.9z M466.9,127.9
			h3.7c0.9,0,1.8-0.1,2.5-0.3c0.7-0.2,1.4-0.5,1.9-1c0.5-0.4,0.9-0.9,1.2-1.5c0.3-0.6,0.4-1.3,0.4-2c0-1.5-0.5-2.6-1.5-3.4
			c-1-0.7-2.4-1.1-4.3-1.1h-3.9V127.9z"/>
		<path class="st1" d="M499.8,138.6h-1.2c-0.1,0-0.3,0-0.3-0.1c-0.1-0.1-0.2-0.2-0.2-0.3l-2.5-6.2h-10.4l-2.5,6.2
			c0,0.1-0.1,0.2-0.2,0.3c-0.1,0.1-0.2,0.1-0.4,0.1h-1.2l8.7-21.2h1.5L499.8,138.6z M485.6,130.9h9.5l-4.3-10.7
			c-0.1-0.2-0.1-0.4-0.2-0.6c-0.1-0.2-0.1-0.4-0.2-0.7c-0.1,0.2-0.1,0.5-0.2,0.7c-0.1,0.2-0.1,0.4-0.2,0.6L485.6,130.9z"/>
	</g>
</g>
</svg>
